<?xml version="1.0" standalone="no"?>
<!DOCTYPE svg PUBLIC "-//W3C//DTD SVG 20010904//EN"
 "http://www.w3.org/TR/2001/REC-SVG-20010904/DTD/svg10.dtd">
<svg version="1.0" xmlns="http://www.w3.org/2000/svg"
 width="2048.000000pt" height="2048.000000pt" viewBox="0 0 2048.000000 2048.000000"
 preserveAspectRatio="xMidYMid meet">

<g transform="translate(0.000000,2048.000000) scale(0.100000,-0.100000)"
fill="#000000" stroke="none">
<path d="M5926 14908 c11 -36 352 -922 749 -1943 92 -236 202 -522 245 -635
44 -113 138 -358 210 -545 73 -187 153 -396 180 -465 107 -279 303 -791 336
-873 19 -49 68 -175 108 -280 41 -106 185 -480 321 -832 283 -732 510 -1324
630 -1635 603 -1568 849 -2208 915 -2375 l78 -200 543 0 544 0 28 70 c15 39
131 338 257 665 319 832 401 1044 625 1625 108 281 252 654 320 830 67 176
208 543 313 815 105 272 253 659 330 860 77 201 204 529 282 730 252 649 328
846 522 1350 104 272 297 772 428 1110 131 338 333 863 450 1165 117 303 217
558 222 568 8 16 -23 17 -618 15 l-626 -3 -35 -95 c-39 -105 -120 -321 -458
-1215 -125 -330 -278 -735 -340 -900 -62 -165 -167 -442 -233 -615 -66 -173
-206 -544 -312 -825 -106 -280 -261 -692 -345 -915 -200 -528 -418 -1105 -672
-1780 -113 -300 -248 -657 -300 -795 -51 -137 -158 -420 -236 -627 -78 -207
-144 -375 -146 -372 -3 3 -13 28 -22 57 -16 50 -197 535 -432 1157 -64 168
-140 370 -170 450 -141 377 -621 1648 -757 2005 -84 220 -165 434 -180 475
-15 41 -86 228 -157 415 -72 187 -145 381 -163 430 -18 50 -39 104 -45 120 -7
17 -48 122 -90 235 -139 370 -260 689 -419 1110 -220 578 -388 1022 -523 1383
l-115 307 -625 0 -624 0 7 -22z"/>
</g>
</svg>
